<mxfile host="65bd71144e">
    <diagram id="zO7SfGx9DCnus-M_D9cw" name="Page-1">
        <mxGraphModel dx="1058" dy="487" grid="1" gridSize="10" guides="1" tooltips="1" connect="1" arrows="1" fold="1" page="1" pageScale="1" pageWidth="850" pageHeight="1100" math="0" shadow="0">
            <root>
                <mxCell id="0"/>
                <mxCell id="1" parent="0"/>
                <mxCell id="38" value="" style="rounded=1;whiteSpace=wrap;html=1;fontSize=15;" vertex="1" parent="1">
                    <mxGeometry x="60" y="20" width="610" height="420" as="geometry"/>
                </mxCell>
                <mxCell id="39" value="" style="rounded=0;whiteSpace=wrap;html=1;fontSize=15;" vertex="1" parent="1">
                    <mxGeometry x="150" y="130" width="440" height="300" as="geometry"/>
                </mxCell>
                <mxCell id="24" value="Keg Details" style="swimlane;" vertex="1" parent="1">
                    <mxGeometry x="305" y="170" width="120" height="230" as="geometry"/>
                </mxCell>
                <mxCell id="21" value="&lt;ul&gt;&lt;li&gt;Name&lt;/li&gt;&lt;li&gt;Brewer&lt;/li&gt;&lt;li&gt;Type&lt;/li&gt;&lt;li&gt;ABV&lt;/li&gt;&lt;li&gt;Price&lt;/li&gt;&lt;li&gt;Pints Remaining&lt;/li&gt;&lt;li&gt;Pour 1 Pint&lt;/li&gt;&lt;/ul&gt;" style="text;strokeColor=none;fillColor=none;html=1;whiteSpace=wrap;verticalAlign=middle;overflow=hidden;" vertex="1" parent="24">
                    <mxGeometry y="40" width="100" height="180" as="geometry"/>
                </mxCell>
                <mxCell id="17" value="&lt;b&gt;&lt;font style=&quot;font-size: 24px&quot;&gt;Header&lt;/font&gt;&lt;/b&gt;" style="rounded=0;whiteSpace=wrap;html=1;" vertex="1" parent="1">
                    <mxGeometry x="160" y="80" width="430" height="40" as="geometry"/>
                </mxCell>
                <mxCell id="25" value="New Keg Form" style="swimlane;" vertex="1" parent="1">
                    <mxGeometry x="450" y="170" width="120" height="230" as="geometry"/>
                </mxCell>
                <mxCell id="29" value="" style="rounded=1;whiteSpace=wrap;html=1;" vertex="1" parent="25">
                    <mxGeometry x="10" y="190" width="100" height="25.5" as="geometry"/>
                </mxCell>
                <mxCell id="34" value="Submit&lt;br&gt;" style="text;html=1;strokeColor=none;fillColor=none;align=center;verticalAlign=middle;whiteSpace=wrap;rounded=0;" vertex="1" parent="25">
                    <mxGeometry x="40" y="190" width="40" height="20" as="geometry"/>
                </mxCell>
                <mxCell id="27" value="" style="group" vertex="1" connectable="0" parent="1">
                    <mxGeometry x="160" y="170" width="120" height="230" as="geometry"/>
                </mxCell>
                <mxCell id="23" value="&lt;ul&gt;&lt;li&gt;Keg 1&lt;/li&gt;&lt;li&gt;Keg 2&lt;/li&gt;&lt;li&gt;Keg 3&lt;/li&gt;&lt;li&gt;Keg 4&lt;/li&gt;&lt;/ul&gt;" style="text;strokeColor=none;fillColor=none;html=1;whiteSpace=wrap;verticalAlign=middle;overflow=hidden;" vertex="1" parent="27">
                    <mxGeometry y="23" width="100" height="172.5" as="geometry"/>
                </mxCell>
                <mxCell id="26" value="Keg List" style="swimlane;startSize=23;" vertex="1" parent="27">
                    <mxGeometry width="120" height="230.00000000000003" as="geometry"/>
                </mxCell>
                <mxCell id="30" value="" style="rounded=1;whiteSpace=wrap;html=1;" vertex="1" parent="26">
                    <mxGeometry x="10" y="190" width="100" height="25.5" as="geometry"/>
                </mxCell>
                <mxCell id="35" value="Create New Keg" style="text;html=1;strokeColor=none;fillColor=none;align=center;verticalAlign=middle;whiteSpace=wrap;rounded=0;" vertex="1" parent="26">
                    <mxGeometry x="10" y="192.75" width="100" height="20" as="geometry"/>
                </mxCell>
                <mxCell id="36" value="Keg Control" style="text;html=1;strokeColor=none;fillColor=none;align=center;verticalAlign=middle;whiteSpace=wrap;rounded=0;fontSize=15;fontStyle=1" vertex="1" parent="1">
                    <mxGeometry x="170" y="130" width="400" height="20" as="geometry"/>
                </mxCell>
                <mxCell id="37" value="&lt;b&gt;&lt;font style=&quot;font-size: 23px&quot;&gt;App&lt;/font&gt;&lt;/b&gt;" style="text;html=1;strokeColor=none;fillColor=none;align=center;verticalAlign=middle;whiteSpace=wrap;rounded=0;fontSize=15;" vertex="1" parent="1">
                    <mxGeometry x="210" y="20" width="280" height="40" as="geometry"/>
                </mxCell>
            </root>
        </mxGraphModel>
    </diagram>
</mxfile>